# Blender v2.83.4 OBJ File: 'balloon.blend'
# www.blender.org
mtllib balloon.mtl
o Sphere_Sphere.001
v 0.000000 2.773342 -1.410333
v 0.000000 2.167798 -1.046788
v 0.059392 1.632029 -0.485284
v 0.327387 5.117899 -0.450610
v 0.615286 4.835111 -0.846869
v 0.828973 4.401855 -1.140983
v 0.942673 3.870386 -1.297478
v 0.942673 3.304810 -1.297478
v 0.828973 2.773342 -1.140983
v 0.615286 2.167798 -0.846869
v 0.237194 1.632029 -0.427512
v -0.000000 5.216111 -0.000000
v 0.529723 5.117899 -0.172118
v 0.995554 4.835111 -0.323475
v 1.341306 4.401855 -0.435817
v 1.525277 3.870386 -0.495593
v 1.525277 3.304810 -0.495593
v 1.341306 2.773342 -0.435817
v 0.995554 2.167798 -0.323475
v 0.449785 1.652544 -0.045980
v 0.529723 5.117899 0.172117
v 0.995554 4.835111 0.323475
v 1.341306 4.401855 0.435817
v 1.525277 3.870386 0.495592
v 1.525277 3.304810 0.495592
v 1.341306 2.773342 0.435817
v 0.995554 2.167798 0.323475
v 0.405281 1.646903 0.221478
v 0.327387 5.117899 0.450609
v 0.615286 4.835111 0.846869
v 0.828973 4.401855 1.140983
v 0.942673 3.870386 1.297478
v 0.942673 3.304810 1.297478
v 0.828973 2.773342 1.140983
v 0.615286 2.167798 0.846869
v 0.335877 1.646903 0.317004
v 0.000000 5.117899 0.556984
v 0.000000 4.835111 1.046787
v 0.000000 4.401855 1.410332
v -0.000000 3.870386 1.603771
v 0.000000 3.304810 1.603771
v -0.000000 2.773342 1.410333
v 0.000000 2.167798 1.046787
v -0.074137 1.640462 0.467482
v -0.327387 5.117899 0.450609
v -0.615286 4.835111 0.846869
v -0.828973 4.401855 1.140983
v -0.942673 3.870386 1.297478
v -0.942673 3.304810 1.297478
v -0.828973 2.773342 1.140983
v -0.615286 2.167798 0.846869
v -0.214801 1.640462 0.421777
v -0.529723 5.117899 0.172117
v -0.995554 4.835111 0.323475
v -1.341306 4.401855 0.435817
v -1.525277 3.870386 0.495593
v -1.525277 3.304810 0.495593
v -1.341306 2.773342 0.435816
v -0.995554 2.167798 0.323475
v -0.439905 1.659277 0.030389
v -0.529723 5.117899 -0.172118
v -0.995554 4.835111 -0.323475
v -1.341306 4.401855 -0.435817
v -1.525277 3.870386 -0.495593
v -1.525277 3.304810 -0.495593
v -1.341306 2.773342 -0.435817
v -0.995554 2.167798 -0.323475
v -0.178563 1.263831 -0.002580
v -0.327387 5.117899 -0.450610
v -0.615286 4.835111 -0.846869
v -0.828973 4.401855 -1.140983
v -0.942673 3.870386 -1.297479
v -0.942673 3.304810 -1.297478
v -0.828973 2.773342 -1.140983
v -0.615286 2.167798 -0.846869
v -0.327387 1.598063 -0.450610
v -0.000000 5.117899 -0.556984
v -0.000000 4.835111 -1.046788
v -0.000000 4.401855 -1.410333
v -0.000000 3.870386 -1.603772
v -0.000000 3.304810 -1.603771
v 0.000000 1.959086 -0.000000
v 0.435324 1.626428 0.231240
v 0.353778 1.627163 0.341643
v 0.327387 1.598063 0.450609
v 0.449785 1.652544 0.045980
v 0.493095 1.623026 0.060052
v 0.256384 1.676361 0.352882
v 0.186930 1.256763 0.012869
v 0.405281 1.646903 0.221478
v 0.435324 1.626428 0.231240
v 0.353778 1.627163 0.341643
v 0.486884 1.627259 -0.058034
v 0.529723 1.598063 0.172117
v 0.529723 1.598063 -0.172118
v 0.416963 1.674913 0.135479
v 0.402950 1.684463 -0.130927
v -0.500997 1.617641 0.050240
v -0.509783 1.611653 -0.053095
v -0.529723 1.598063 -0.172118
v -0.529723 1.598063 0.172117
v -0.403820 1.683870 0.131209
v -0.426766 1.668231 -0.138665
v -0.005345 1.266265 0.022492
v 0.059392 1.647583 -0.461289
v 0.327387 1.598063 -0.450610
v 0.000000 1.598063 -0.556984
v 0.262037 1.670127 -0.360664
v 0.000000 1.684020 -0.424370
v -0.074137 1.634895 0.476071
v -0.005341 1.274757 -0.007250
v -0.327387 1.598063 0.450609
v 0.000000 1.598063 0.556984
v 0.000000 1.682266 0.427077
v -0.271394 1.659809 0.373541
vt 0.700000 0.222222
vt 0.700000 0.333333
vt 0.600000 0.333333
vt 0.600000 0.222222
vt 0.700000 0.555556
vt 0.700000 0.666667
vt 0.600000 0.666667
vt 0.600000 0.555556
vt 0.700000 0.888889
vt 0.650000 1.000000
vt 0.600000 0.888889
vt 0.700000 0.111111
vt 0.600000 0.111111
vt 0.700000 0.444444
vt 0.600000 0.444444
vt 0.700000 0.777778
vt 0.600000 0.777778
vt 0.650000 0.000000
vt 0.688095 0.084656
vt 0.609981 0.088932
vt 0.550000 1.000000
vt 0.500000 0.888889
vt 0.500000 0.222222
vt 0.500000 0.111111
vt 0.500000 0.555556
vt 0.500000 0.444444
vt 0.500000 0.777778
vt 0.550000 0.000000
vt 0.590020 0.088932
vt 0.511966 0.084520
vt 0.500000 0.333333
vt 0.500000 0.666667
vt 0.400000 0.444444
vt 0.400000 0.333333
vt 0.400000 0.777778
vt 0.400000 0.666667
vt 0.400000 0.222222
vt 0.400000 0.555556
vt 0.450000 1.000000
vt 0.400000 0.888889
vt 0.400000 0.111111
vt 0.450000 0.000000
vt 0.488034 0.084520
vt 0.410643 0.087459
vt 0.300000 0.666667
vt 0.300000 0.555556
vt 0.350000 1.000000
vt 0.300000 0.888889
vt 0.300000 0.222222
vt 0.300000 0.111111
vt 0.300000 0.444444
vt 0.300000 0.777778
vt 0.350000 0.000000
vt 0.389357 0.087459
vt 0.310844 0.087014
vt 0.300000 0.333333
vt 0.200000 0.888889
vt 0.200000 0.777778
vt 0.250000 0.000000
vt 0.289156 0.087014
vt 0.200000 0.111111
vt 0.211662 0.085196
vt 0.200000 0.444444
vt 0.200000 0.333333
vt 0.200000 0.666667
vt 0.200000 0.222222
vt 0.200000 0.555556
vt 0.250000 1.000000
vt 0.100000 0.333333
vt 0.100000 0.222222
vt 0.100000 0.666667
vt 0.100000 0.555556
vt 0.150000 1.000000
vt 0.100000 0.888889
vt 0.100000 0.111111
vt 0.100000 0.444444
vt 0.100000 0.777778
vt 0.150000 0.000000
vt 0.188338 0.085196
vt 0.108552 0.092108
vt 0.000000 0.222222
vt 0.000000 0.111111
vt 0.000000 0.555556
vt 0.000000 0.444444
vt 0.000000 0.888889
vt 0.000000 0.777778
vt 0.050000 0.000000
vt 0.091448 0.092108
vt 0.011884 0.084702
vt 0.000000 0.333333
vt 0.000000 0.666667
vt 0.050000 1.000000
vt 1.000000 0.333333
vt 1.000000 0.444444
vt 0.900000 0.444444
vt 0.900000 0.333333
vt 1.000000 0.666667
vt 1.000000 0.777778
vt 0.900000 0.777778
vt 0.900000 0.666667
vt 1.000000 0.222222
vt 0.900000 0.222222
vt 1.000000 0.555556
vt 0.900000 0.555556
vt 1.000000 0.888889
vt 0.950000 1.000000
vt 0.900000 0.888889
vt 1.000000 0.111111
vt 0.900000 0.111111
vt 0.950000 0.000000
vt 0.988116 0.084702
vt 0.909718 0.089516
vt 0.800000 0.666667
vt 0.800000 0.555556
vt 0.850000 1.000000
vt 0.800000 0.888889
vt 0.800000 0.222222
vt 0.800000 0.111111
vt 0.800000 0.444444
vt 0.800000 0.777778
vt 0.850000 0.000000
vt 0.890282 0.089516
vt 0.800000 0.333333
vt 0.750000 0.000000
vt 0.711905 0.084656
vt 0.750000 1.000000
vt 0.330115 0.102155
vt 0.369986 0.102381
vt 0.369986 0.102381
vt 0.330115 0.102155
vt 0.332849 0.096080
vt 0.367151 0.096080
vt 0.367151 0.096080
vt 0.332849 0.096080
vt 0.432555 0.103428
vt 0.466859 0.102126
vt 0.463357 0.094344
vt 0.436643 0.094344
vt 0.934576 0.106929
vt 0.964595 0.105086
vt 0.958828 0.092271
vt 0.941172 0.092271
vt 0.623737 0.098677
vt 0.675001 0.095871
vt 0.677155 0.100657
vt 0.622845 0.100657
vt 0.125941 0.103787
vt 0.172254 0.099775
vt 0.171483 0.098062
vt 0.128517 0.098062
vn 0.2684 -0.4958 -0.8259
vn 0.2920 0.3271 -0.8987
vn 0.0563 0.9832 -0.1734
vn 0.2392 -0.6330 -0.7363
vn 0.3090 -0.0000 -0.9511
vn 0.1604 0.8548 -0.4935
vn -0.1740 -0.8263 0.5356
vn 0.2920 -0.3271 -0.8987
vn 0.2415 0.6238 -0.7434
vn 0.1475 0.9832 -0.1072
vn 0.6263 -0.6330 -0.4550
vn 0.8090 -0.0000 -0.5878
vn 0.4198 0.8548 -0.3050
vn -0.4556 -0.8263 0.3310
vn 0.7645 -0.3271 -0.5554
vn 0.6323 0.6238 -0.4594
vn 0.7026 -0.4958 -0.5104
vn 0.7645 0.3271 -0.5554
vn 0.9450 -0.3271 0.0000
vn 0.7816 0.6238 0.0000
vn 0.8684 -0.4958 -0.0000
vn 0.9450 0.3271 0.0000
vn 0.1823 0.9832 0.0000
vn 0.7742 -0.6330 0.0000
vn 1.0000 -0.0000 0.0000
vn 0.5189 0.8548 -0.0000
vn -0.5632 -0.8263 -0.0000
vn 0.7645 0.3271 0.5554
vn 0.1475 0.9832 0.1072
vn 0.6263 -0.6330 0.4550
vn 0.8090 -0.0000 0.5878
vn 0.4198 0.8548 0.3050
vn -0.4556 -0.8263 -0.3310
vn 0.7645 -0.3271 0.5554
vn 0.6323 0.6238 0.4594
vn 0.7026 -0.4958 0.5104
vn 0.1604 0.8548 0.4935
vn -0.1740 -0.8263 -0.5356
vn 0.2920 -0.3271 0.8987
vn 0.2415 0.6238 0.7434
vn 0.2684 -0.4958 0.8259
vn 0.2920 0.3271 0.8987
vn 0.0563 0.9832 0.1734
vn 0.2392 -0.6330 0.7363
vn 0.3090 -0.0000 0.9511
vn -0.2684 -0.4958 0.8259
vn -0.2920 0.3271 0.8987
vn -0.0563 0.9832 0.1734
vn -0.2392 -0.6330 0.7363
vn -0.3090 -0.0000 0.9511
vn -0.1604 0.8548 0.4935
vn 0.1740 -0.8263 -0.5356
vn -0.2920 -0.3271 0.8987
vn -0.2415 0.6238 0.7434
vn -0.6263 -0.6330 0.4550
vn -0.8090 -0.0000 0.5878
vn -0.4198 0.8548 0.3050
vn 0.4556 -0.8263 -0.3310
vn -0.7645 -0.3271 0.5554
vn -0.6323 0.6238 0.4594
vn -0.7026 -0.4958 0.5104
vn -0.7645 0.3271 0.5554
vn -0.1475 0.9832 0.1072
vn -0.9450 -0.3271 0.0000
vn -0.7816 0.6238 0.0000
vn -0.8684 -0.4958 -0.0000
vn -0.9450 0.3271 0.0000
vn -0.1823 0.9832 0.0000
vn -0.7742 -0.6330 -0.0000
vn -1.0000 -0.0000 0.0000
vn -0.5189 0.8548 -0.0000
vn 0.5632 -0.8263 0.0000
vn -0.7645 0.3271 -0.5554
vn -0.1475 0.9832 -0.1072
vn -0.6263 -0.6330 -0.4550
vn -0.8090 -0.0000 -0.5878
vn -0.4198 0.8548 -0.3050
vn 0.4556 -0.8263 0.3310
vn -0.7645 -0.3271 -0.5554
vn -0.6323 0.6238 -0.4594
vn -0.7026 -0.4958 -0.5104
vn -0.1604 0.8548 -0.4935
vn 0.1740 -0.8263 0.5356
vn -0.2920 -0.3271 -0.8987
vn -0.2415 0.6238 -0.7434
vn -0.2684 -0.4958 -0.8259
vn -0.2920 0.3271 -0.8987
vn -0.0563 0.9832 -0.1734
vn -0.2392 -0.6330 -0.7363
vn -0.3090 -0.0000 -0.9511
vn 0.0000 0.0000 1.0000
vn -0.7463 0.6294 -0.2165
vn 0.8401 0.0955 -0.5339
vn 0.6419 -0.6086 0.4664
vn 0.5632 0.8263 -0.0000
vn 0.4723 0.5350 -0.7005
vn -0.4917 -0.7488 0.4444
vn 0.8637 0.4636 -0.1976
vn 0.0392 -0.8131 -0.5807
vn 0.7609 -0.6434 0.0839
vn -0.3867 0.6760 0.6273
vn -0.2502 -0.7842 0.5678
vn -0.4929 -0.8354 0.2432
vn 0.4096 0.6628 -0.6269
usemtl Material.001
s off
f 2/1/1 1/2/1 9/3/1 10/4/1
f 80/5/2 79/6/2 6/7/2 7/8/2
f 77/9/3 12/10/3 4/11/3
f 107/12/4 2/1/4 10/4/4 106/13/4
f 81/14/5 80/5/5 7/8/5 8/15/5
f 78/16/6 77/9/6 4/11/6 5/17/6
f 82/18/7 109/19/7 108/20/7
f 1/2/8 81/14/8 8/15/8 9/3/8
f 79/6/9 78/16/9 5/17/9 6/7/9
f 4/11/10 12/21/10 13/22/10
f 106/13/11 10/4/11 19/23/11 95/24/11
f 8/15/12 7/8/12 16/25/12 17/26/12
f 5/17/13 4/11/13 13/22/13 14/27/13
f 82/28/14 108/29/14 106/13/14 95/24/14 97/30/14
f 9/3/15 8/15/15 17/26/15 18/31/15
f 6/7/16 5/17/16 14/27/16 15/32/16
f 10/4/17 9/3/17 18/31/17 19/23/17
f 7/8/18 6/7/18 15/32/18 16/25/18
f 18/31/19 17/26/19 25/33/19 26/34/19
f 15/32/20 14/27/20 22/35/20 23/36/20
f 19/23/21 18/31/21 26/34/21 27/37/21
f 16/25/22 15/32/22 23/36/22 24/38/22
f 13/22/23 12/39/23 21/40/23
f 95/24/24 19/23/24 27/37/24 94/41/24
f 17/26/25 16/25/25 24/38/25 25/33/25
f 14/27/26 13/22/26 21/40/26 22/35/26
f 82/42/27 97/43/27 96/44/27
f 24/38/28 23/36/28 31/45/28 32/46/28
f 21/40/29 12/47/29 29/48/29
f 94/41/30 27/37/30 35/49/30 85/50/30
f 25/33/31 24/38/31 32/46/31 33/51/31
f 22/35/32 21/40/32 29/48/32 30/52/32
f 82/53/33 96/54/33 88/55/33
f 26/34/34 25/33/34 33/51/34 34/56/34
f 23/36/35 22/35/35 30/52/35 31/45/35
f 27/37/36 26/34/36 34/56/36 35/49/36
f 30/52/37 29/48/37 37/57/37 38/58/37
f 82/59/38 88/60/38 85/50/38 113/61/38 114/62/38
f 34/56/39 33/51/39 41/63/39 42/64/39
f 31/45/40 30/52/40 38/58/40 39/65/40
f 35/49/41 34/56/41 42/64/41 43/66/41
f 32/46/42 31/45/42 39/65/42 40/67/42
f 29/48/43 12/68/43 37/57/43
f 85/50/44 35/49/44 43/66/44 113/61/44
f 33/51/45 32/46/45 40/67/45 41/63/45
f 43/66/46 42/64/46 50/69/46 51/70/46
f 40/67/47 39/65/47 47/71/47 48/72/47
f 37/57/48 12/73/48 45/74/48
f 113/61/49 43/66/49 51/70/49 112/75/49
f 41/63/50 40/67/50 48/72/50 49/76/50
f 38/58/51 37/57/51 45/74/51 46/77/51
f 82/78/52 114/79/52 115/80/52
f 42/64/53 41/63/53 49/76/53 50/69/53
f 39/65/54 38/58/54 46/77/54 47/71/54
f 112/75/55 51/70/55 59/81/55 101/82/55
f 49/76/56 48/72/56 56/83/56 57/84/56
f 46/77/57 45/74/57 53/85/57 54/86/57
f 82/87/58 115/88/58 112/75/58 101/82/58 102/89/58
f 50/69/59 49/76/59 57/84/59 58/90/59
f 47/71/60 46/77/60 54/86/60 55/91/60
f 51/70/61 50/69/61 58/90/61 59/81/61
f 48/72/62 47/71/62 55/91/62 56/83/62
f 45/74/63 12/92/63 53/85/63
f 58/93/64 57/94/64 65/95/64 66/96/64
f 55/97/65 54/98/65 62/99/65 63/100/65
f 59/101/66 58/93/66 66/96/66 67/102/66
f 56/103/67 55/97/67 63/100/67 64/104/67
f 53/105/68 12/106/68 61/107/68
f 101/108/69 59/101/69 67/102/69 100/109/69
f 57/94/70 56/103/70 64/104/70 65/95/70
f 54/98/71 53/105/71 61/107/71 62/99/71
f 82/110/72 102/111/72 103/112/72
f 64/104/73 63/100/73 71/113/73 72/114/73
f 61/107/74 12/115/74 69/116/74
f 100/109/75 67/102/75 75/117/75 76/118/75
f 65/95/76 64/104/76 72/114/76 73/119/76
f 62/99/77 61/107/77 69/116/77 70/120/77
f 82/121/78 103/122/78 100/109/78 76/118/78
f 66/96/79 65/95/79 73/119/79 74/123/79
f 63/100/80 62/99/80 70/120/80 71/113/80
f 67/102/81 66/96/81 74/123/81 75/117/81
f 70/120/82 69/116/82 77/9/82 78/16/82
f 82/124/83 76/118/83 107/12/83 109/125/83
f 74/123/84 73/119/84 81/14/84 1/2/84
f 71/113/85 70/120/85 78/16/85 79/6/85
f 75/117/86 74/123/86 1/2/86 2/1/86
f 72/114/87 71/113/87 79/6/87 80/5/87
f 69/116/88 12/126/88 77/9/88
f 76/118/89 75/117/89 2/1/89 107/12/89
f 73/119/90 72/114/90 80/5/90 81/14/90
f 84/127/91 83/128/91 91/129/91 92/130/91
f 36/131/33 28/132/33 94/41/33 85/50/33
f 28/132/33 83/128/33 96/54/33 94/41/33
f 84/127/33 36/131/33 85/50/33 88/55/33
f 83/128/33 84/127/33 88/55/33 96/54/33
f 92/130/92 91/129/92 90/133/92 89/134/92
f 83/128/91 28/132/91 90/133/91 91/129/91
f 36/131/93 84/127/93 92/130/93 89/134/93
f 28/132/94 36/131/94 89/134/94 90/133/94
f 87/135/95 93/136/95 20/137/95 86/138/95
f 86/138/27 20/137/27 95/24/27 94/41/27
f 87/135/27 86/138/27 94/41/27 96/44/27
f 20/137/27 93/136/27 97/43/27 95/24/27
f 93/136/27 87/135/27 96/44/27 97/43/27
f 99/139/96 98/140/96 60/141/96 68/142/96
f 68/142/97 60/141/97 101/108/97 100/109/97
f 60/141/72 98/140/72 102/111/72 101/108/72
f 99/139/98 68/142/98 100/109/98 103/112/98
f 98/140/72 99/139/72 103/112/72 102/111/72
f 104/143/99 105/144/99 3/145/99 11/146/99
f 11/146/7 3/145/7 107/12/7 106/13/7
f 104/143/100 11/146/100 106/13/100 108/20/100
f 3/145/7 105/144/7 109/19/7 107/12/7
f 105/144/101 104/143/101 108/20/101 109/19/101
f 111/147/102 110/148/102 44/149/102 52/150/102
f 52/150/52 44/149/52 113/61/52 112/75/52
f 44/149/52 110/148/52 114/79/52 113/61/52
f 111/147/103 52/150/103 112/75/103 115/80/103
f 110/148/104 111/147/104 115/80/104 114/79/104
o Cube_Cube.001
v -0.336711 0.308094 0.336711
v -0.290212 1.011121 0.290212
v -0.336711 0.308094 -0.336711
v -0.290212 1.011121 -0.290212
v 0.336711 0.308094 0.336711
v 0.290212 1.011121 0.290212
v 0.336711 0.308094 -0.336711
v 0.290212 1.011121 -0.290212
v -0.348674 0.998351 0.348674
v -0.348674 0.998351 -0.348674
v 0.348674 0.998351 -0.348674
v 0.348674 0.998351 0.348674
v -0.271753 0.495386 0.271753
v -0.271753 0.495386 -0.271753
v 0.271753 0.495386 -0.271753
v 0.271753 0.495386 0.271753
vt 0.375000 0.000000
vt 0.625000 0.000000
vt 0.625000 0.250000
vt 0.375000 0.250000
vt 0.625000 0.500000
vt 0.375000 0.500000
vt 0.625000 0.750000
vt 0.375000 0.750000
vt 0.625000 1.000000
vt 0.375000 1.000000
vt 0.125000 0.500000
vt 0.125000 0.750000
vt 0.850885 0.725885
vt 0.649115 0.725885
vt 0.649115 0.725885
vt 0.850885 0.725885
vt 0.850885 0.524115
vt 0.875000 0.500000
vt 0.875000 0.750000
vt 0.649115 0.524115
vt 0.649115 0.524115
vt 0.850885 0.524115
vn -0.9998 -0.0173 0.0000
vn 0.0000 -0.0173 -0.9998
vn 0.9998 -0.0173 0.0000
vn 0.0000 -0.0173 0.9998
vn 0.0000 -1.0000 0.0000
vn 0.0000 0.0358 -0.9994
vn -0.2134 0.9770 0.0000
vn 0.0000 0.9770 -0.2134
vn 0.2134 0.9770 0.0000
vn 0.0000 0.9770 0.2134
vn 0.0000 1.0000 0.0000
vn 0.0000 0.0358 0.9994
vn -0.9994 0.0358 0.0000
vn 0.9994 0.0358 0.0000
usemtl Material.002
s off
f 116/151/105 124/152/105 125/153/105 118/154/105
f 118/154/106 125/153/106 126/155/106 122/156/106
f 122/156/107 126/155/107 127/157/107 120/158/107
f 120/158/108 127/157/108 124/159/108 116/160/108
f 118/161/109 122/156/109 120/158/109 116/162/109
f 117/163/110 121/164/110 131/165/110 128/166/110
f 117/163/111 119/167/111 125/168/111 124/169/111
f 119/167/112 123/170/112 126/155/112 125/168/112
f 123/170/113 121/164/113 127/157/113 126/155/113
f 121/164/114 117/163/114 124/169/114 127/157/114
f 130/171/115 129/172/115 128/166/115 131/165/115
f 123/170/116 119/167/116 129/172/116 130/171/116
f 121/164/117 123/170/117 130/171/117 131/165/117
f 119/167/118 117/163/118 128/166/118 129/172/118
o Cube.001_Cube.002
v -0.340645 1.297678 -0.041456
v -0.340645 0.971277 -0.041456
v -0.340645 1.297678 0.041456
v -0.340645 0.971277 0.041456
v -0.289490 1.297678 -0.041456
v -0.289490 0.971277 -0.041456
v -0.289490 1.297678 0.041456
v -0.289490 0.971277 0.041456
v -0.340645 1.227104 -0.041456
v -0.340645 1.227104 0.041456
v -0.289490 1.227104 0.041456
v -0.289490 1.227104 -0.041456
v 0.286844 1.227104 0.041456
v 0.286844 1.297678 0.041456
v 0.286844 1.297678 -0.041456
v 0.286844 1.227104 -0.041456
vt 0.429054 0.000000
vt 0.625000 0.000000
vt 0.625000 0.250000
vt 0.429054 0.250000
vt 0.625000 0.500000
vt 0.429054 0.500000
vt 0.625000 0.750000
vt 0.429054 0.750000
vt 0.625000 1.000000
vt 0.429054 1.000000
vt 0.125000 0.500000
vt 0.375000 0.500000
vt 0.375000 0.750000
vt 0.125000 0.750000
vt 0.875000 0.500000
vt 0.875000 0.750000
vt 0.375000 1.000000
vt 0.429054 0.500000
vt 0.375000 0.500000
vt 0.375000 0.250000
vt 0.375000 0.000000
vt 0.429054 0.750000
vt 0.375000 0.750000
vn -1.0000 0.0000 0.0000
vn 0.0000 0.0000 1.0000
vn 1.0000 0.0000 0.0000
vn 0.0000 0.0000 -1.0000
vn 0.0000 1.0000 0.0000
vn 0.0000 -1.0000 0.0000
usemtl Material.003
s off
f 140/173/119 133/174/119 135/175/119 141/176/119
f 141/176/120 135/175/120 139/177/120 142/178/120
f 142/178/121 139/177/121 137/179/121 143/180/121
f 143/180/122 137/179/122 133/181/122 140/182/122
f 134/183/123 138/184/123 136/185/123 132/186/123
f 139/177/124 135/187/124 133/188/124 137/179/124
f 136/185/122 143/180/122 140/182/122 132/189/122
f 138/184/120 142/178/120 144/190/120 145/191/120
f 134/192/120 141/176/120 142/178/120 138/184/120
f 132/193/119 140/173/119 141/176/119 134/192/119
f 145/191/121 144/190/121 147/194/121 146/195/121
f 142/178/124 143/180/124 147/194/124 144/190/124
f 143/180/122 136/185/122 146/195/122 147/194/122
f 136/185/123 138/184/123 145/191/123 146/195/123
o Cube.002_Cube.003
v 0.287354 1.297678 -0.041456
v 0.287354 0.971277 -0.041456
v 0.287354 1.297678 0.041456
v 0.287354 0.971277 0.041456
v 0.338509 1.297678 -0.041456
v 0.338509 0.971277 -0.041456
v 0.338509 1.297678 0.041456
v 0.338509 0.971277 0.041456
vt 0.375000 0.000000
vt 0.625000 0.000000
vt 0.625000 0.250000
vt 0.375000 0.250000
vt 0.625000 0.500000
vt 0.375000 0.500000
vt 0.625000 0.750000
vt 0.375000 0.750000
vt 0.625000 1.000000
vt 0.375000 1.000000
vt 0.125000 0.500000
vt 0.125000 0.750000
vt 0.875000 0.500000
vt 0.875000 0.750000
vn -1.0000 0.0000 0.0000
vn 0.0000 0.0000 1.0000
vn 1.0000 0.0000 0.0000
vn 0.0000 0.0000 -1.0000
vn 0.0000 1.0000 0.0000
vn 0.0000 -1.0000 0.0000
usemtl Material.003
s off
f 148/196/125 149/197/125 151/198/125 150/199/125
f 150/199/126 151/198/126 155/200/126 154/201/126
f 154/201/127 155/200/127 153/202/127 152/203/127
f 152/203/128 153/202/128 149/204/128 148/205/128
f 150/206/129 154/201/129 152/203/129 148/207/129
f 155/200/130 151/208/130 149/209/130 153/202/130
